<svg xmlns="http://www.w3.org/2000/svg" viewBox="0 0 500 500"><g id="freepik--Floor--inject-13"><ellipse id="freepik--floor--inject-13" cx="250" cy="363.3" rx="216.86" ry="125.2" style="fill:#f5f5f5"></ellipse></g><g id="freepik--Trees--inject-13"><path d="M103.43,252a189.1,189.1,0,0,1-1.2,19.72q-2.82,1.51-5.57,3.1-4,2.3-7.69,4.67a176.73,176.73,0,0,0,3.5-52.21c-3.36-36.81-19.66-64.08-36.15-80.35l3.1-.59c3.78,2.47,14.61,10.57,27,32.7C94.05,192.76,103.67,218.17,103.43,252Z" style="fill:#ebebeb"></path><path d="M453.6,163.14c-14.4,11.47-29.58,31.63-35.33,60.43-4.53,22.67-1.59,52.68-.74,60.23q-4.95-3.48-10.39-6.78c-.33-8.84-.67-24.11.4-34.84,2.65-26.71,12.38-46,19.61-56.2,11.61-16.45,20.85-21.93,24.05-23.56Z" style="fill:#ebebeb"></path><g id="freepik--Palm--inject-13"><path d="M58.08,145.64c-2.42-1.63-1.36-1.63-4.69-3.4-5-2.68-13.26-2.53-20-.26-11.92,4-22.6,12-26.22,24.41,4.36-4.93,10.36-6.7,16.69-7.3,1.33-2.76,2.66-5.52,4.11-8.23.3,2.56.56,5.1.75,7.67a24,24,0,0,0,8.36-2.44c1.35-3.39,2.93-6.67,4.6-9.92-.38,2.78-.74,5.56-1,8.35C46.7,152.21,52.82,149.56,58.08,145.64Z" style="fill:#ebebeb"></path><g style="opacity:0.15"><path d="M58.08,145.64c-2.42-1.63-1.36-1.63-4.69-3.4-5-2.68-13.26-2.53-20-.26-11.92,4-22.6,12-26.22,24.41,4.36-4.93,10.36-6.7,16.69-7.3,1.33-2.76,2.66-5.52,4.11-8.23.3,2.56.56,5.1.75,7.67a24,24,0,0,0,8.36-2.44c1.35-3.39,2.93-6.67,4.6-9.92-.38,2.78-.74,5.56-1,8.35C46.7,152.21,52.82,149.56,58.08,145.64Z" style="fill:#ebebeb"></path></g><path d="M56.42,146.85s-1.7-3.64,2.71-10.77c6.93-11.19,18.69-16.27,25-17.51s15.88-1,21.17,2.38a30.63,30.63,0,0,0-14.72,5.44A35.19,35.19,0,0,0,77.84,125s7.19,2.5,8.93,4.09A21.67,21.67,0,0,1,77,136s-5.85-4.41-11.19-3.28A13.51,13.51,0,0,1,74,137.75,97.6,97.6,0,0,1,56.42,146.85Z" style="fill:#ebebeb"></path><path d="M56.42,146.85s-1.7-3.64,2.71-10.77c6.93-11.19,18.69-16.27,25-17.51s15.88-1,21.17,2.38a30.63,30.63,0,0,0-14.72,5.44A35.19,35.19,0,0,0,77.84,125s7.19,2.5,8.93,4.09A21.67,21.67,0,0,1,77,136s-5.85-4.41-11.19-3.28A13.51,13.51,0,0,1,74,137.75,97.6,97.6,0,0,1,56.42,146.85Z" style="fill:#ebebeb;opacity:0.2"></path><path d="M56.42,146.85a37.1,37.1,0,0,1,21.2-8.2c17-1,27.95,5.23,32.78,11.69,0,0-8.21-4.29-18.63.34l-7.31-5.79,2.07,7.52c-2.24.87-5.37,1.07-9.18.78l-7.65-8.1,3.41,7.73S62.77,152.28,56.42,146.85Z" style="fill:#ebebeb"></path><path d="M56.42,146.85a37.1,37.1,0,0,1,21.2-8.2c17-1,27.95,5.23,32.78,11.69,0,0-8.21-4.29-18.63.34l-7.31-5.79,2.07,7.52c-2.24.87-5.37,1.07-9.18.78l-7.65-8.1,3.41,7.73S62.77,152.28,56.42,146.85Z" style="fill:#ebebeb;opacity:0.05"></path><path d="M56.42,146.85s-3.14-.41-8.62,3.21c-9.32,6.14-15.21,19.1-16.14,25.38s-.32,15.68,3.26,20.74a30.15,30.15,0,0,1,4.72-14.73,34.89,34.89,0,0,1-2-12.5s2.79,7,4.42,8.61a21.23,21.23,0,0,0,6.35-10s-4.59-5.57-3.71-10.87a13.31,13.31,0,0,0,5.36,7.9S53.34,156.22,56.42,146.85Z" style="fill:#ebebeb"></path><path d="M56.42,146.85s-3.14-.41-8.62,3.21c-9.32,6.14-15.21,19.1-16.14,25.38s-.32,15.68,3.26,20.74a30.15,30.15,0,0,1,4.72-14.73,34.89,34.89,0,0,1-2-12.5s2.79,7,4.42,8.61a21.23,21.23,0,0,0,6.35-10s-4.59-5.57-3.71-10.87a13.31,13.31,0,0,0,5.36,7.9S53.34,156.22,56.42,146.85Z" style="fill:#ebebeb;opacity:0.05"></path><path d="M77.61,190.9a25.72,25.72,0,0,1-5.66-10c-.39-1.53-.72-3.18-1-4.88-6.28-2.75-7.54-6.61-7.54-6.61a10.19,10.19,0,0,0,7,3.09c-.1-3.78-1.37-7.35-2.25-10.55-4.83-1-6.83-3.38-6.83-3.38a12.3,12.3,0,0,0,6.17.68c-2.65-6.61-7.74-11.44-11.07-12.43,0,0-3.26,3.22-1.5,16.28C56.75,176.61,66.18,188.27,77.61,190.9Z" style="fill:#ebebeb"></path></g><g id="freepik--palm--inject-13"><path d="M452.31,162c2.05-1.09,1.21-1.18,4-2.3,4.22-1.69,10.69-.88,15.84,1.48,9.09,4.17,16.85,11.4,18.66,21.5-3-4.26-7.62-6.17-12.57-7.17-.81-2.3-1.63-4.59-2.55-6.85-.45,2-.87,4-1.24,6a19,19,0,0,1-6.39-2.63c-.79-2.79-1.76-5.52-2.81-8.22.07,2.22.12,4.45.11,6.68A57,57,0,0,1,452.31,162Z" style="fill:#ebebeb"></path><g style="opacity:0.15"><path d="M452.31,162c2.05-1.09,1.21-1.18,4-2.3,4.22-1.69,10.69-.88,15.84,1.48,9.09,4.17,16.85,11.4,18.66,21.5-3-4.26-7.62-6.17-12.57-7.17-.81-2.3-1.63-4.59-2.55-6.85-.45,2-.87,4-1.24,6a19,19,0,0,1-6.39-2.63c-.79-2.79-1.76-5.52-2.81-8.22.07,2.22.12,4.45.11,6.68A57,57,0,0,1,452.31,162Z" style="fill:#ebebeb"></path></g><path d="M453.52,163.11s1.65-2.73-1.24-8.74A32.05,32.05,0,0,0,434,138.44c-4.9-1.51-12.47-2.16-16.93.09a24.38,24.38,0,0,1,11.17,5.54,28,28,0,0,1,10.2,0s-5.9,1.37-7.4,2.48a17.17,17.17,0,0,0,7.18,6.27s5-3,9.11-1.65a10.77,10.77,0,0,0-6.95,3.32A77.82,77.82,0,0,0,453.52,163.11Z" style="fill:#ebebeb"></path><path d="M453.52,163.11s1.65-2.73-1.24-8.74A32.05,32.05,0,0,0,434,138.44c-4.9-1.51-12.47-2.16-16.93.09a24.38,24.38,0,0,1,11.17,5.54,28,28,0,0,1,10.2,0s-5.9,1.37-7.4,2.48a17.17,17.17,0,0,0,7.18,6.27s5-3,9.11-1.65a10.77,10.77,0,0,0-6.95,3.32A77.82,77.82,0,0,0,453.52,163.11Z" style="fill:#ebebeb;opacity:0.2"></path><path d="M453.52,163.11a29.48,29.48,0,0,0-16.06-8.26c-13.34-2.23-22.52,1.78-26.88,6.47a18,18,0,0,1,14.69,1.84l6.27-4L429.26,165a17.5,17.5,0,0,0,7.19,1.39l6.72-5.76-3.34,5.82S448.05,166.87,453.52,163.11Z" style="fill:#ebebeb"></path><path d="M453.52,163.11a29.48,29.48,0,0,0-16.06-8.26c-13.34-2.23-22.52,1.78-26.88,6.47a18,18,0,0,1,14.69,1.84l6.27-4L429.26,165a17.5,17.5,0,0,0,7.19,1.39l6.72-5.76-3.34,5.82S448.05,166.87,453.52,163.11Z" style="fill:#ebebeb;opacity:0.05"></path><path d="M453.52,163.11s2.51-.06,6.54,3.26c6.84,5.64,10.4,16.37,10.61,21.41s-1.06,12.41-4.32,16.11a24,24,0,0,0-2.48-12,27.83,27.83,0,0,0,2.6-9.71s-2.79,5.27-4.22,6.43a17,17,0,0,1-4.18-8.41s4.1-4,3.85-8.27a10.6,10.6,0,0,1-4.9,5.79S455.16,170.77,453.52,163.11Z" style="fill:#ebebeb"></path><path d="M453.52,163.11s2.51-.06,6.54,3.26c6.84,5.64,10.4,16.37,10.61,21.41s-1.06,12.41-4.32,16.11a24,24,0,0,0-2.48-12,27.83,27.83,0,0,0,2.6-9.71s-2.79,5.27-4.22,6.43a17,17,0,0,1-4.18-8.41s4.1-4,3.85-8.27a10.6,10.6,0,0,1-4.9,5.79S455.16,170.77,453.52,163.11Z" style="fill:#ebebeb;opacity:0.05"></path><path d="M433.07,196.13a20.44,20.44,0,0,0,5.31-7.4c.44-1.18.84-2.45,1.22-3.77,5.19-1.65,6.51-4.59,6.51-4.59a8.16,8.16,0,0,1-5.8,1.85c.4-3,1.71-5.69,2.66-8.15a10.08,10.08,0,0,0,5.69-2.09,9.72,9.72,0,0,1-4.94,0c2.65-5,7.09-8.38,9.8-8.88,0,0,2.3,2.82-.19,13C450.75,186.59,442.32,195,433.07,196.13Z" style="fill:#ebebeb"></path></g></g><g id="freepik--Clouds--inject-13"><path id="freepik--Cloud--inject-13" d="M403.82,31.36c0-3.13-3.44-5.31-7.33-5.68-4.58-.43-7.84,1.61-7.95,5.22-3-1.23-6.15-.44-5.92,2.86-.78-.9-3.69-.88-4.74-.63a4.12,4.12,0,0,0-2.61,2.23,3,3,0,0,0-.27,1.69c-1.75-.58-5.73-.93-6.72.68-1.77,2.85,5.3,2.94,6.73,2.08.3,2.22,7.89,2.58,9.73.53,1.44,1.45,3.5,1.77,5.73,1.9,3.76.23,6.06-1.05,9-2.54,3.19,2.7,8.71,2.75,11.58-.34.73.69,2.75.9,4.37.52,1.06-.26,1.3-.71,1.3-.71a9.7,9.7,0,0,0,2,.59c2.09.43,6,0,4.34-1.91a4.93,4.93,0,0,0-3.44-.84c-.91-1.79-4.56-3.48-6.65-2-.09-2.17-2.07-3.86-4.85-4.29C407.12,30.6,404.88,30.48,403.82,31.36Z" style="fill:#f5f5f5"></path><path id="freepik--cloud--inject-13" d="M480.13,66.74a8.9,8.9,0,0,0-2.87-.53c-.93-.07-1.23-.26-1.41-.46a6.86,6.86,0,0,0-8.24-2.43,5.28,5.28,0,0,0-6.22-3.52c.1-2.89-3.6-6-6.92-6.72s-6-.39-7.79,1.71C444.73,51,437.1,49.91,433,51.92c-2.38,1.16-4.39,2.35-5.38,4.53a9,9,0,0,0-.89,4.32c-1.61-1.42-4.83-1.8-7-1-2.32.9-2.5,2.65-2.61,4.42a8.06,8.06,0,0,0-4.22-.07c-1.46.43-2.3,1.58-2.1,2.5-1.16-.06-3.91.87-3.6,2.09.36,1.37,3.5,1.23,4.68,1.19a19.89,19.89,0,0,0,3.28-.52,5.2,5.2,0,0,0,1.71.33c2,0,2.85-.87,3.17-1.62,1,2.06,4.46,3.63,6.92,4.26,4.62,1.18,11.17.46,14-3a5.22,5.22,0,0,0,1.38,1.68,8,8,0,0,0,4.29,1.73c1.9.18,7,.43,8.43-2.6,1,2,5.56,2.93,9,2.44A14.18,14.18,0,0,0,468,71.46a22.64,22.64,0,0,0,2.23-1.33,1.82,1.82,0,0,1,1.89-.13,11.34,11.34,0,0,0,7.54,0C481.54,69.18,481.94,67.56,480.13,66.74Z" style="fill:#f5f5f5"></path></g><g id="freepik--Sun--inject-13"><circle id="freepik--sun--inject-13" cx="64.87" cy="57.91" r="23.96" style="fill:#ffbda7"></circle></g><g id="freepik--Plant--inject-13"><g id="freepik--Plants--inject-13"><path d="M110.64,384c-.88-4.77-9.1-12.38-28-18.07-17-5.11-19.79-12.18-12.15-18.43s23.05-2.09,32.19,7.45c11,11.52,11.55,26.41,11.55,26.41L110.64,384" style="fill:#BA68C8"></path><path d="M110.64,384c-.88-4.77-9.1-12.38-28-18.07-17-5.11-19.79-12.18-12.15-18.43s23.05-2.09,32.19,7.45c11,11.52,11.55,26.41,11.55,26.41L110.64,384" style="fill:#fff;opacity:0.35000000000000003"></path><path d="M113.27,382.21a.51.51,0,0,1-.5-.43c-2.78-21.65-24.55-29.72-37.62-29.72a.5.5,0,0,1-.5-.5.5.5,0,0,1,.5-.5c13.41,0,35.75,8.31,38.62,30.59a.51.51,0,0,1-.44.56Z" style="fill:#fff"></path><path d="M87.26,346.88c-6.64-4.16-17.88-9.31-23.91-14.31-4-3.29-6.21-10.15-1.57-14.81,2.29-2.24,4.83-3.8,8-4,21.76-1.24,40.25,17.4,45.93,38.4,2.59,9.59,3.7,21.92,1.78,27.06l-5.14,3.49C110.05,363.53,98.45,353.88,87.26,346.88Z" style="fill:#BA68C8"></path><path d="M87.26,346.88c-6.64-4.16-17.88-9.31-23.91-14.31-4-3.29-6.21-10.15-1.57-14.81,2.29-2.24,4.83-3.8,8-4,21.76-1.24,40.25,17.4,45.93,38.4,2.59,9.59,3.7,21.92,1.78,27.06l-5.14,3.49C110.05,363.53,98.45,353.88,87.26,346.88Z" style="fill:#fff;opacity:0.15"></path><path d="M115.73,378.74a.5.5,0,0,1-.5-.46c-2.41-32.51-24.26-50.26-43.91-56a.49.49,0,0,1-.34-.62.51.51,0,0,1,.62-.34c20,5.87,42.18,23.9,44.63,56.92a.5.5,0,0,1-.47.53Z" style="fill:#fff"></path></g></g><g id="freepik--Shadows--inject-13"><ellipse id="freepik--Shadow--inject-13" cx="174.16" cy="406.39" rx="84" ry="48.5" style="fill:#e0e0e0"></ellipse><path id="freepik--shadow--inject-13" d="M404.43,397.07a10.15,10.15,0,0,0-3.11-2c-3.7-1.62-8.68-1.83-13-1.72a29.34,29.34,0,0,1-13-2.1,43.49,43.49,0,0,0-7.71-1.93c-5.83-1-8.9.09-11.08,1.89-2.59-7.56-8.95-14.77-19.1-20.63-27.27-15.75-71.48-15.75-98.75,0s-27.27,41.26,0,57,71.34,15.74,98.62.07l.75.65a23.84,23.84,0,0,0,9.6,4.85,25.65,25.65,0,0,0,12.42-.39c3.69-1,5.69-3.12,8.35-5.65a11.69,11.69,0,0,1,3.77-2.78c1.32-.47,3-.29,4.46-.39,3.76-.27,7.55-.17,11.28-.78,5.86-1,11-4.23,10.51-8.08-.29-2.52-2.76-5.08.47-6.89,2.4-1.34,6.18-1.75,7.55-4.43C407.6,401.44,406.06,398.65,404.43,397.07Z" style="fill:#e0e0e0"></path></g><g id="freepik--Character--inject-13"><g id="freepik--character--inject-13"><g id="freepik--Bottom--inject-13"><path d="M211.63,372.61a17.14,17.14,0,0,1-4.3-11.57c-.2-8.32-1.72-68-2.47-81.06-1.13-19.67-5.45-50.84-9.31-77.65a252.15,252.15,0,0,0-6.16-28.52l-49.91-1.46C132.76,182.56,119.09,200,120,225.72c1.46,40.55,4.52,66.84,4.52,66.84-1.61,4.48-3.63,14-2.69,34.95.73,16.25,2.29,40.89,2,49.19-.1,2.73-1.41,21.16-.74,26.83,1,8.52,12.32,8.05,13.17,3s3.81-26.74,4-29c.35-6.52,12.5-64.39,16-82.18,3.18-16.16,5.39-47,5.39-47l11.79,38A94.69,94.69,0,0,0,174.9,312c2.13,10.71,13.68,52.61,14.44,57.68,0,0,8.29,6.32,13,10.44a91.73,91.73,0,0,0,12.8,9.74c3.48,2.07,12.2,1.19,13.27-1.07C222.69,383.77,216.06,378.22,211.63,372.61Z" style="fill:#ffa8a7"></path><path d="M161.64,248.45,165.56,216s17-2.66,23-8.86c0,0-7.42,11.34-18.95,13.58l-4,23.91,7.74,41.47Z" style="fill:#f28f8f"></path><path d="M236.87,397.21c.31,0,.53,3.48-1.26,4.81-2.06,1.53-8,3.87-15.43,2.36s-11.38-4.15-14.21-6.89-6.81-6.61-10.16-7.6c-3.12-.93-6.46-2.61-7.4-3.66s-.49-5.4-.49-5.4Z" style="fill:#263238"></path><path d="M188.78,367.06a1.19,1.19,0,0,0-.67,1.28c.08,1.6.86,3.12.41,5.87a32.5,32.5,0,0,0-.56,8.13c.25,2.26,5.3,4.18,8.51,5.68a41.66,41.66,0,0,1,10.2,7.52c3.33,3.17,10.57,6.64,15.48,7.06,7.49.65,12.5-1,14.19-3.62,2.1-3.2,2.18-6.81-6.15-11.43-1.58-.87-7.06-4.68-8.93-6.05-5-3.7-9.94-8.71-11.95-14.77a3.28,3.28,0,0,0-1.11-1.89,2.76,2.76,0,0,0-1.66-.27c-1.45.1-5.54,1.63-6.89,2.16s-2.67,1.34-2.75,2.82a8.11,8.11,0,0,0,.39,2.23c.08.31.38,1.7.11,1.86s-.61-1.12-.8-1.36c-.9-1.13-1.18-1.8-2.38-2.14s-4.32-.6-5.11-1.86Z" style="fill:#37474f"></path><path d="M231.53,388.31c-10.91,0-16.21,8-17,12.12a25.44,25.44,0,0,0,7.59,2.17c7.49.65,12.8-1,14.5-3.59C238.62,396,239,391.79,231.53,388.31Z" style="fill:#fafafa"></path><path d="M213.85,388.83a.54.54,0,0,1-.35-.9c1.65-1.74,7.58-5.46,11.5-4.74a.53.53,0,1,1-.19,1c-3.66-.65-9.23,3-10.54,4.43A.53.53,0,0,1,213.85,388.83Z" style="fill:#f0f0f0"></path><path d="M209.37,385.77a.54.54,0,0,1-.35-.9c1.65-1.74,7.59-5.46,11.5-4.74a.53.53,0,1,1-.19,1c-3.66-.66-9.23,3.05-10.54,4.43A.53.53,0,0,1,209.37,385.77Z" style="fill:#f0f0f0"></path><path d="M205.26,382.34a.54.54,0,0,1-.33-.14.53.53,0,0,1,0-.75c1.65-1.75,7.6-5.46,11.5-4.75a.54.54,0,0,1,.43.62.53.53,0,0,1-.62.43c-3.65-.66-9.23,3.05-10.54,4.43A.52.52,0,0,1,205.26,382.34Z" style="fill:#f0f0f0"></path><path d="M201.24,378.92a.48.48,0,0,1-.32-.13.54.54,0,0,1,0-.76c2.26-2.47,8.49-5.44,12.4-4.73a.53.53,0,0,1-.19,1.05c-3.52-.64-9.42,2.21-11.43,4.4A.48.48,0,0,1,201.24,378.92Z" style="fill:#f0f0f0"></path><path d="M140.65,410.34c-.1,5-.82,9.06-2.88,11.58a8.47,8.47,0,0,1-8.66,2.92c-3.39-.73-7.77-2.84-8.89-7.08s-1-7.16-.45-11.78Z" style="fill:#263238"></path><path d="M123.9,374.93c-1.38.16-1.54,6.82-2.09,13.51-.59,7.16-1.37,10.23-1.92,16.11-.62,6.71-.16,9.68,2.33,13.64s10.93,7.61,14.8,1.67c3.15-4.84,4.37-10,3.82-16.71a145.83,145.83,0,0,1-.19-16.92c.08-5,1-10.1-.22-10.61-.06.74-.12,1.67-.19,2.4-.05.55-.09,3.27-.86,3.32a9.8,9.8,0,0,1-.09-1.88,2.19,2.19,0,0,0-.44-1.6,2.6,2.6,0,0,0-1.56-.63c-1.37-.22-5.53-.27-6.92-.34-.69,0-2.62-.08-3.31-.05a5.41,5.41,0,0,0-1.74.32,1.21,1.21,0,0,0-.72.7,2.21,2.21,0,0,0,0,.77,5.37,5.37,0,0,1-.12,1.38c0,.2-.17.44-.37.4s-.23-.23-.24-.39c0-.81.05-1.4.05-2.34,0-.43,0-1,0-1.46S123.89,375.36,123.9,374.93Z" style="fill:#37474f"></path><path d="M119.65,408.43c-.08,4.16.26,7,2.21,10.09,2.49,4,11.6,7.6,15.47,1.66a19.85,19.85,0,0,0,3.32-9.84C138,406,123.37,404.49,119.65,408.43Z" style="fill:#fafafa"></path><path d="M137.27,403.22l-.17,0c-.06,0-8.3-2.54-14.48-.86A.52.52,0,0,1,122,402a.51.51,0,0,1,.36-.62c6.53-1.77,14.91.8,15.16.9a.53.53,0,0,1,.27.68A.54.54,0,0,1,137.27,403.22Z" style="fill:#f0f0f0"></path><path d="M122.77,397.32a.51.51,0,0,1-.15-1c6.12-2.33,14.87.67,15.14.8a.51.51,0,0,1,.24.68.53.53,0,0,1-.69.24c-.06,0-8.63-2.93-14.32-.76A.42.42,0,0,1,122.77,397.32Z" style="fill:#f0f0f0"></path><path d="M123,392.61a.51.51,0,0,1-.16-1c6.73-2.7,15.14.6,15.39.74a.51.51,0,0,1-.5.9c-.06,0-8.24-3.2-14.5-.69A.46.46,0,0,1,123,392.61Z" style="fill:#f0f0f0"></path><path d="M123.18,387.32a.5.5,0,0,1-.44-.31.51.51,0,0,1,.27-.67c6.3-2.63,15.21.74,15.48.88a.51.51,0,0,1,.22.69.5.5,0,0,1-.69.22c-.07,0-8.76-3.29-14.61-.85A.39.39,0,0,1,123.18,387.32Z" style="fill:#ebebeb"></path></g><g id="freepik--Top--inject-13"><path id="freepik--Hair--inject-13" d="M154.1,53.24c-5.47-7.56-18.26-3.77-23,2.6-2.4,3.22-1.87,7.47-4.69,10.3-2.48,2.49-6.07,3.74-8.12,6.69-3.68,5.27.74,9.53,1.72,14.62.67,3.52-2.33,5.51-3.65,8.41a10.41,10.41,0,0,0,1.71,11.1c2.33,2.79,7,3.41,8.25,7,.59,1.73.47,3.46,1.66,5a15.29,15.29,0,0,0,4.64,3.78c3.63,2,8.14,1.55,12.13,1.12a16.93,16.93,0,0,0,6.7-2,6.78,6.78,0,0,0,2.45-2.28,10.33,10.33,0,0,1,2.47-2.7c2.21-2,2.66-4.13,2.8-7,.21-4.6-.18-8.57,2.42-12.68s6.49-7.19,5.74-12.56c-.65-4.58-3.71-7.85-7.13-10.66a23.34,23.34,0,0,1-5-4.84c-1.31-2-1.75-4.46-2.16-6.74a51.66,51.66,0,0,1-.74-6.2C152.22,55.73,154.41,53.66,154.1,53.24Z" style="fill:#263238"></path><path id="freepik--Arm--inject-13" d="M244.93,178.4c-7.82,0-20.14.68-30.58-.71-3.66-.49-6.95-1.36-11.85-6.77S188.56,154,188.56,154l-9.71-38.48c10.45,0,12.28,2.13,23.27,17.42,11.65,16.22,17.2,23.64,17.2,23.64s27.25,4.3,35.06,5.05c7.15.69,8.34-1.35,14.84-2.77,4.47-1,7.91-.63,10.55-.8,3.15-.21,2.31,2.39.23,3.7s-7,1.59-7.93,3.16,8.05,1.15,12.66.28c5.3-1,7.63-.78,8.45,1,.15.34-.16.86-1.82,2.12a2.61,2.61,0,0,1-1.13,3.32c-.38,2.61-.74,5.11-5.42,7.27-8,3.7-14.37,2.75-22.43.93S252.76,178.4,244.93,178.4Z" style="fill:#ffa8a7"></path><path d="M122.4,199.54c5-13.81,10.73-22.47,10.93-26.88,0,0-4.17-25.36-4.67-30.59-1.28-13.62,1.26-20,4-21.36a96.2,96.2,0,0,1,10.18-3.17c9.45-2.54,22.93-2.66,31.69-2.39,3.28.22,4.3.35,4.3.35a81.21,81.21,0,0,1,11.64,11c6.83,8.18,8.93,13.65,7.69,21.94a19.9,19.9,0,0,1-4.76,9.71c-.6,4-1.65,15.4-1.65,15.4,0,4.48.78,10.65,2.88,21.46,0,0,6.46,31.22,8.79,53.65-18.79,15.78-66.91,18.91-84.26,11.5C116.66,222.63,117.42,213.35,122.4,199.54Z" style="fill:#BA68C8"></path><path d="M122.4,199.54c5-13.81,10.73-22.47,10.93-26.88,0,0-4.17-25.36-4.67-30.59-1.28-13.62,1.26-20,4-21.36a96.2,96.2,0,0,1,10.18-3.17c9.45-2.54,22.93-2.66,31.69-2.39,3.28.22,4.3.35,4.3.35a81.21,81.21,0,0,1,11.64,11c6.83,8.18,8.93,13.65,7.69,21.94a19.9,19.9,0,0,1-4.76,9.71c-.6,4-1.65,15.4-1.65,15.4,0,4.48.78,10.65,2.88,21.46,0,0,6.46,31.22,8.79,53.65-18.79,15.78-66.91,18.91-84.26,11.5C116.66,222.63,117.42,213.35,122.4,199.54Z" style="fill:#fff;opacity:0.2"></path><path d="M177,143.6a2,2,0,1,1-1.93-2A2,2,0,0,1,177,143.6Z" style="fill:#fafafa"></path><path d="M178.72,156.05a2,2,0,1,1-1.92-2A1.94,1.94,0,0,1,178.72,156.05Z" style="fill:#fafafa"></path><path d="M178.52,169a2,2,0,1,1-1.92-2A1.94,1.94,0,0,1,178.52,169Z" style="fill:#fafafa"></path><path d="M177.65,186.94a2,2,0,1,1-1.93-2A2,2,0,0,1,177.65,186.94Z" style="fill:#fafafa"></path><path d="M178.19,201.35a2,2,0,1,1-1.93-2A2,2,0,0,1,178.19,201.35Z" style="fill:#fafafa"></path><path d="M179.18,214.22a2,2,0,1,1-1.93-2A2,2,0,0,1,179.18,214.22Z" style="fill:#fafafa"></path><path d="M180.93,227.49a2,2,0,1,1-1.92-2A2,2,0,0,1,180.93,227.49Z" style="fill:#fafafa"></path><path d="M182.66,242.58a2,2,0,1,1-1.93-2A2,2,0,0,1,182.66,242.58Z" style="fill:#fafafa"></path><path d="M185.1,226.9c-1.14-9.88-2.41-19.75-3.33-29.64a203.72,203.72,0,0,1-.06-29.75c.14-2.48.29-5,.29-7.47a71.68,71.68,0,0,0-.33-7.47,51,51,0,0,0-1.24-7.38,28.34,28.34,0,0,0-2.6-7,30.84,30.84,0,0,1,2.38,7,52.36,52.36,0,0,1,1,7.36,73.65,73.65,0,0,1,.2,7.43c0,2.48-.23,4.95-.4,7.44a194.66,194.66,0,0,0-.15,29.87c.47,5,1.08,9.9,1.67,14.84s1.2,9.87,1.87,14.8c1.3,9.86,2.65,19.72,4.13,29.56Z" style="opacity:0.2"></path><path d="M133.33,172.66c8.53,4.59,44.29,8.72,58.44.84l.2,4.12s-5.77,5.16-29.44,5.1-29.93-6.59-29.93-6.59Z" style="fill:#37474f"></path><g id="freepik--Head--inject-13"><path d="M139.53,62.06c-3.29-3.25,3.72-9.39,8.55-9.66S152.35,56,152.35,56Z" style="fill:#BA68C8"></path><path d="M180.63,61.62c-2.46-3.07-5-3.47-6.84-3.25-2.68-3.07-11.4-5.55-15.35-5.46-15.26.33-19.39,8.5-19.93,11.46-7.2,1.71-14.15,14.91-5.22,28.35,3.87,5.82,11.58,12.34,12.54,15.82l8.5-2.27a17.76,17.76,0,0,1,9.36-15.71c9.77-5.26,15.22-8.45,16.53-10.74C185.72,72.67,183.53,65.25,180.63,61.62Z" style="fill:#263238"></path><path d="M179.38,72.41a89.62,89.62,0,0,1,2.1,14.9c.66,14-3.11,16.7-6,18.59-1.83,1.18-3.52,1.72-7.91,2l.49,7.27s19.59,20.64,9.82,23.06c-12.5,3.1-21.2-5.56-25.46-11.31a76.26,76.26,0,0,1-5.31-8.13l-1.57-17.84s-3.5,3.45-8.18-.31c-3.64-2.91-4.84-9.43-1.92-12.36s6.8-2.46,9.22,1.83c1.72,3,3.87.28,2.91-3.13s1.64-4,2.36-6c2-5.65-.76-7.7,3.34-12.28,2.27-2.54,8.78-3.52,13.39.47C168,63.16,177,62.39,179.38,72.41Z" style="fill:#ffa8a7"></path><path d="M161.59,94.67l7.54,1.69a3.73,3.73,0,0,1-4.46,3.13A4.18,4.18,0,0,1,161.59,94.67Z" style="fill:#b16668"></path><path d="M161.94,97.25a4,4,0,0,0,2.73,2.24,3.59,3.59,0,0,0,2.3-.25,3.22,3.22,0,0,0-3.46-2.61A3.29,3.29,0,0,0,161.94,97.25Z" style="fill:#f28f8f"></path><path d="M161.15,82.79a2,2,0,1,1-2-2.08A2.05,2.05,0,0,1,161.15,82.79Z" style="fill:#263238"></path><path d="M176.2,81.12a2,2,0,1,1-2-2.06A2,2,0,0,1,176.2,81.12Z" style="fill:#263238"></path><path d="M159.1,76.84l-4.66,2.75a3,3,0,0,1,1-3.89A2.59,2.59,0,0,1,159.1,76.84Z" style="fill:#263238"></path><path d="M176.81,77.13l-5-2a2.51,2.51,0,0,1,3.34-1.65A3,3,0,0,1,176.81,77.13Z" style="fill:#263238"></path><polygon points="165.51 79.42 167.5 92.3 174.16 89.35 165.51 79.42" style="fill:#f28f8f"></polygon><path d="M167.52,107.88a29,29,0,0,1-13.16-2.8c-2.68-1.36-4.85-4.62-6-6.73.24.5.4,6.07,5.33,9.13,5.46,3.39,14,3.15,14,3.15Z" style="fill:#f28f8f"></path></g><g id="freepik--arm--inject-13"><path d="M171.24,115.74c-.84-1.41-2.84-1.11-2.84-1.11a4.25,4.25,0,0,0-1.51-3.31,3.76,3.76,0,0,0-2.47-.17c.23-1.2-1-3.51-2.4-3.5a12.9,12.9,0,0,0-3.79,1.08s-1,.77-2.58,4.08l.69-5.29s1.5-2,2.49-3.56c2.13-3.28.72-5.07-.1-5-.39,0-1.49,1.17-3.84,3.33s-3.06,2.7-3.49,4.28-.9,3.46-1.72,7-1,4.66-.4,6.44,1.62,5.35,3.11,9.87c.91,2.76.05,4.8-1.36,7.85-1,2.08-2.92,6.39-7.25,14l-1.57-5.25c-.16-8.93-4.85-22.74-9.53-25.79-7.53,2.1-12.58,7.29-13.44,12.82-2,12.63,4.82,27.37,9.61,38.82C134.13,185,139.71,189,143.9,188.87S152,185.7,157,174.56c4.12-10.44,7.88-29.22,8.95-32.62s1.61-5.67,2.85-7.79c1-1.74.85-7.47.09-10.71.54,1,1.79,1.52,2.51.68C171.22,122.46,171.65,116.81,171.24,115.74Z" style="fill:#ffa8a7"></path><path d="M165.92,141.94c.47-1.53.89-3.07,1.4-4.58a19.54,19.54,0,0,1,.89-2.23c.16-.36.36-.71.55-1.06a4.4,4.4,0,0,0,.37-1.13,19.83,19.83,0,0,0,.24-4.75,26.83,26.83,0,0,0-.59-4.73.08.08,0,0,1,.07-.1.09.09,0,0,1,.09,0,2.15,2.15,0,0,0,1.07.95,1.11,1.11,0,0,0,1.29-.29l0,.06c-.08-1.41,0-2.8,0-4.2l0-2.1a8.57,8.57,0,0,0-.18-2h0a2.13,2.13,0,0,0-1.19-.91,3.65,3.65,0,0,0-1.54-.14.11.11,0,0,1-.13-.1h0a4.19,4.19,0,0,0-1-2.82,1.84,1.84,0,0,0-1.3-.66,4.86,4.86,0,0,0-1.52.12.13.13,0,0,1-.15-.09v-.05a3.19,3.19,0,0,0-.49-2,2.72,2.72,0,0,0-1.48-1.34,4.71,4.71,0,0,0-2,.29,17.76,17.76,0,0,0-2,.74h0a5.51,5.51,0,0,0-.75.89c-.23.33-.44.67-.65,1-.41.69-.78,1.41-1.13,2.13a.15.15,0,0,1-.19.07.14.14,0,0,1-.08-.15l.69-5.29a.09.09,0,0,1,0-.07l1.9-2.72a8.64,8.64,0,0,0,1.54-2.88,3.53,3.53,0,0,0,.09-1.58,1.44,1.44,0,0,0-.87-1.15c-.22-.07-.41.13-.64.28s-.42.36-.62.54l-1.22,1.13L154,103.3a8.73,8.73,0,0,0-2.14,2.45,7.54,7.54,0,0,0-.49,1.57l-.4,1.62-.79,3.23c-.27,1.07-.53,2.15-.76,3.23a10.68,10.68,0,0,0-.33,3.27,7.41,7.41,0,0,0,.4,1.59l.49,1.59,1,3.18,1,3.18a19.56,19.56,0,0,1,.85,3.22c.24,2.26-.82,4.36-1.73,6.34.89-2,1.93-4.1,1.66-6.34a20.15,20.15,0,0,0-.88-3.19l-1-3.17-1-3.17-.5-1.58a7.64,7.64,0,0,1-.41-1.63,10.37,10.37,0,0,1,.33-3.33c.22-1.08.48-2.16.74-3.24l.79-3.24.39-1.61a7.85,7.85,0,0,1,.49-1.61,9,9,0,0,1,2.19-2.53l2.44-2.26,1.22-1.13c.21-.19.42-.38.64-.55a2.22,2.22,0,0,1,.35-.25.65.65,0,0,1,.49-.09,1.69,1.69,0,0,1,1.08,1.34,3.94,3.94,0,0,1-.09,1.71,9,9,0,0,1-1.56,3l-1.91,2.73,0-.07-.69,5.3-.28-.08c.36-.73.73-1.45,1.15-2.15.21-.35.43-.69.67-1a5.92,5.92,0,0,1,.81-.95s0,0,0,0a21.7,21.7,0,0,1,2-.75,5,5,0,0,1,2.18-.28A2.93,2.93,0,0,1,164,109a3.45,3.45,0,0,1,.51,2.14l-.15-.14a5.12,5.12,0,0,1,1.61-.13,2.33,2.33,0,0,1,.8.22,3.28,3.28,0,0,1,.64.53,4.42,4.42,0,0,1,1.07,3l-.12-.11a3.8,3.8,0,0,1,1.64.15,2.33,2.33,0,0,1,1.3,1h0a9,9,0,0,1,.18,2.12l0,2.1c0,1.4-.11,2.81,0,4.19a.11.11,0,0,1,0,.06,1.28,1.28,0,0,1-1.49.34,2.29,2.29,0,0,1-1.16-1l.16-.06a27.26,27.26,0,0,1,.57,4.76,20.24,20.24,0,0,1-.29,4.79,4.66,4.66,0,0,1-.39,1.14c-.19.35-.39.69-.56,1a18.35,18.35,0,0,0-.91,2.21C166.84,138.88,166.4,140.42,165.92,141.94Z" style="fill:#b16668"></path><path d="M164.54,111.25a2.82,2.82,0,0,0-.08-1.17c-1.05.56-2.6,1.06-3.45,1.61a3.3,3.3,0,0,0-1.37,2C160,113,161.24,112,164.54,111.25Z" style="fill:#b16668"></path><path d="M164.68,116.56a7.49,7.49,0,0,1,3.84-1.83,5.2,5.2,0,0,0-.12-1.11C165.3,114.84,164.68,116.56,164.68,116.56Z" style="fill:#b16668"></path><path d="M169,124.39a21.7,21.7,0,0,0-1.18-4.42c-.37-.82-.53-1.28.47-1.39s2.07-1.59,2-.71c0,.46-1.6,1.59-1.55,2.24A24.23,24.23,0,0,1,169,124.39Z" style="fill:#b16668"></path><path d="M143.78,151.75c-6.46,7.94-9.16,13.51-8.61,19.89-.94-2-.81-7,.58-10.35A40,40,0,0,1,143.27,150Z" style="fill:#f28f8f"></path><path d="M156,99.76a1,1,0,0,0,.71,1.38c.61.23,1.25.12,1.48.84.13.4-.23.87,0,1.28s.63.4.59.84c-.1,1-.17,2.72,1.47,2.29.93-.51.25-1.57.59-2.6.48-1.42,1.51-2.82.75-4.43-.68-1.44-2.83-2.61-4.11-1.18C157.09,98.81,156.26,99,156,99.76Z" style="fill:#BA68C8"></path><path d="M156,99.76a1,1,0,0,0,.71,1.38c.61.23,1.25.12,1.48.84.13.4-.23.87,0,1.28s.63.4.59.84c-.1,1-.17,2.72,1.47,2.29.93-.51.25-1.57.59-2.6.48-1.42,1.51-2.82.75-4.43-.68-1.44-2.83-2.61-4.11-1.18C157.09,98.81,156.26,99,156,99.76Z" style="opacity:0.1"></path><path d="M160.28,106.39a1,1,0,0,0,.51-.93c-.35.85-1.19.53-1.15-.34,0-.49.33-1.25,0-1.66s-.62-.37-.75-.69.26-.79.29-1.21a1.16,1.16,0,0,0-.8-1,3,3,0,0,0-1.35-.26,2.75,2.75,0,0,1-.76,0,.71.71,0,0,1-.36-.22,1,1,0,0,0,.76,1.06c.61.23,1.25.12,1.48.84.13.4-.23.87,0,1.28s.63.4.59.84C158.71,105.06,158.64,106.82,160.28,106.39Z" style="opacity:0.2"></path><path d="M160.67,100.84c.27.77.92.09.89-.66a1.76,1.76,0,0,0-1.22-1.57c-.62,0-.17.72,0,1A5.47,5.47,0,0,1,160.67,100.84Z" style="fill:#BA68C8"></path><path d="M160.65,101.82a.34.34,0,0,0,.67,0C161.38,101.24,160.66,101.39,160.65,101.82Z" style="fill:#BA68C8"></path></g><path d="M165.54,97.12c-1.79-1.27-4.32-.47-4.47,1.9,0,1.71,1.29,1.94,2.56,1.62.59-.14,1.48-1,2-1.06a3.47,3.47,0,0,0,1.9-.62C167.52,98.46,167.11,97.33,165.54,97.12Z" style="fill:#f28f8f"></path><path d="M166.61,96.87c-.27-.33-.84-.27-1.21-.22a4.37,4.37,0,0,0-1.32.35,3.62,3.62,0,0,0-1.68,1.73s0,.06,0,0a4.18,4.18,0,0,1,1.73-1.33,3.48,3.48,0,0,1,1.26-.27,2.19,2.19,0,0,1,.8.13c.22.09.21-.06.37-.13S166.67,96.94,166.61,96.87Z" style="fill:#b16668"></path></g></g></g><g id="freepik--speech-bubble--inject-13"><g id="freepik--speech-bubble--inject-13"><g id="freepik--speech-bubble--inject-13"><path d="M225.84,49.13A17.67,17.67,0,0,0,197.7,70.29l-2.5,4.88a1,1,0,0,0,1.27,1.43l5.14-1.92a17.67,17.67,0,0,0,24.23-25.55Zm-2.35,23.92a16.17,16.17,0,0,1-11.22,4.11L210.41,77a16.27,16.27,0,0,1,1.85-32.39l1.86.07a16.27,16.27,0,0,1,9.37,28.36Z" style="fill:#455a64"></path></g><path id="freepik--Heart--inject-13" d="M212.68,71c-11.49-6.12-12.41-12.69-9.07-15.9,3-2.88,8.47-1,9.07,3.13.61-4.11,6.09-6,9.08-3.13C225.1,58.29,224.18,64.86,212.68,71Z" style="fill:#BA68C8"></path></g></g><g id="freepik--ice-cream--inject-13"><g id="freepik--ice-cream--inject-13"><path d="M304,195.3l-78.89-15.12,0,.18c-4.87,25.87,30.53,220.78,30.53,220.78a9.57,9.57,0,0,0,17.55,3.35h0S377.91,236.27,383,210.32h0Z" style="fill:#ffbda7"></path><path d="M357.63,217.67c-23.31,37.54-90.37,71-119.82,78.3l-1.69-10.82S308.15,270.09,357.63,217.67Z" style="fill:#f0997a"></path><path d="M357.63,217.67c-23.13,37.23-89.28,70.49-119.09,78.12a5,5,0,0,0-3.66,5.8l20.73,99.55Z" style="fill:#ffbda7"></path><path d="M353.71,238.17c-34.22,11.92-84.21,2.37-111.64-21.31s-21.92-52.54,12.31-64.46S338.59,150,366,173.72,387.94,226.26,353.71,238.17Z" style="fill:#f0997a"></path><path d="M349.7,233c-31.12,10.09-76.79,1.37-102-19.47s-20.43-45.91,10.69-56,76.79-1.36,102,19.48S380.82,222.94,349.7,233Z" style="opacity:0.2"></path><path d="M355.42,203.06c-25.21-20.84-70.88-29.56-102-19.47-8.8,2.85-15.49,6.9-20,11.71,2.41,6.13,7.14,12.36,14.27,18.25,25.21,20.84,70.88,29.56,102,19.47,8.8-2.85,15.49-6.9,20-11.71C367.28,215.18,362.55,209,355.42,203.06Z" style="opacity:0.2"></path><path d="M363,246.16l-5.12,2.65-2.56,1.33-2.6,1.23c-3.72,1.87-7.54,3.51-11.41,5.1a1.31,1.31,0,0,0,.78,2.49,81.11,81.11,0,0,0,12.31-3.51l2.83-1c.93-.35,1.83-.77,2.74-1.15,1.21-.51,2.41-1.05,3.61-1.58q2.38-4.39,4.54-8.5C366.44,244.22,364.72,245.17,363,246.16Z" style="fill:#f0997a"></path><path d="M260.86,284.1c-6.35-4.09-12.52-8.2-18.54-12.5-3.15-2.22-6.22-4.52-9.26-6.86.34,2.38.7,4.77,1.06,7.18,1.91,1.2,3.84,2.37,5.82,3.46A93.48,93.48,0,0,0,260.86,284.1Z" style="fill:#f0997a"></path><path d="M286.56,382.31l-2.23.36q-2.22-2.35-4.38-4.75c-2.64-2.79-5-5.8-7.54-8.7l-3.57-4.52-1.79-2.26-1.7-2.33c-2.64-3.44-5.06-7-7.44-10.67a1.26,1.26,0,0,0-2.23,1.15,82.29,82.29,0,0,0,6,12l1.48,2.59c.52.84,1.1,1.65,1.65,2.48,1.1,1.65,2.23,3.29,3.37,4.91,2.45,3.13,4.86,6.3,7.58,9.2.61.69,1.25,1.34,1.88,2-3.33.45-6.69.8-10.07,1.15a.92.92,0,0,0,0,1.82,88.12,88.12,0,0,0,13.59.62c.55.54,1.11,1.07,1.67,1.6l4.1-6.68Z" style="fill:#f0997a"></path><path d="M301.4,306.44c1.07,1.41,2.15,2.82,3.25,4.21,2.49,2.87,5,5.77,7.68,8.42q3.59,3.6,7.44,6.88l3.59-4.07q-3.56-3.36-7-6.81c-2.66-2.55-5.09-5.3-7.65-7.94l-1.64-1.85.74-.19q2.9-.72,5.77-1.52c3.76-1.25,7.56-2.45,11.21-4s7-3.07,10.44-4.84c.88.83,1.79,1.63,2.7,2.43.94-1.62,1.88-3.23,2.81-4.85l-.45-.36,1-.61q2.28-3.93,4.5-7.81l-2.21,1.16c-2.49,1.27-5,2.48-7.52,3.68-1.87-1.64-3.74-3.29-5.56-5-2.76-2.42-5.36-5-8-7.55-1.4-1.22-6.74-8-8-7.77-.65.88,4.8,8.06,5.91,9.57a109.83,109.83,0,0,0,7,8.85c1.21,1.43,2.48,2.82,3.78,4.18-2.82,1.26-5.64,2.49-8.49,3.66-3.52,1.55-7.15,2.77-10.73,4.17l-5.46,1.83-2.74.93-.19.06-.31-.34-1.75-2.13c-4.19-4.74-7.9-9.84-11.81-14.95a.48.48,0,0,0-.83.48,88.18,88.18,0,0,0,9.08,17.14l.8,1.22c-5.26,1.58-10.61,2.81-16,4.09a.61.61,0,0,0,.13,1.21A87.56,87.56,0,0,0,301.4,306.44Z" style="fill:#f0997a"></path><path d="M250.3,249.58q2.05,1.36,4.17,2.66A103.68,103.68,0,0,0,265.53,258a1.28,1.28,0,0,0,1.27-2.21q-5.07-3.6-9.95-7.36c0-1.32,0-1.85.06-3.16q2.32-1.64,4.53-3.39a1,1,0,0,0-1.05-1.64q-4.33,2.13-8.68,4.13c-4-3.17-7.85-6.41-11.6-9.82-4.32-3.91-8.59-7.89-12.7-12.06.32,2.78.67,5.65,1,8.59q3.78,4,7.87,7.71a113.09,113.09,0,0,0,10,8h0q-7.41,3.25-14.95,6.06c.26,1.87.53,3.76.8,5.65a114.62,114.62,0,0,0,15.91-7.65C248.82,250.46,249.56,250,250.3,249.58Z" style="fill:#f0997a"></path><path d="M301.83,352.63q-3.52-3.33-6.91-6.76l1.33-.15c1-.15,1.95-.37,2.93-.55q2.93-.56,5.84-1.18c2-.55,4.09-1.08,6.12-1.67,1.47-2.43,2.95-4.91,4.45-7.41l0,0c-3.9,1.53-7.94,2.61-11.92,3.91l-5.56,1.5-2.78.77-2.81.65-2.26-.67q-2.31-2.43-4.55-4.92c-2.65-2.79-5-5.8-7.55-8.7l-3.56-4.52-1.79-2.27-1.71-2.32c-3.38-4.41-9.09-12.8-12.14-17.52a.87.87,0,0,0-1.55.77c1.94,5.35,7,14.3,10,19.17l1.48,2.59c.51.85,1.1,1.66,1.64,2.49,1.11,1.64,2.23,3.28,3.38,4.91,2.45,3.13,4.86,6.3,7.57,9.2,1.08,1.19,2.19,2.35,3.3,3.51-3.37.66-6.78,1.25-10.21,1.85a.69.69,0,0,0,.06,1.36,90.68,90.68,0,0,0,13.39,0A116.39,116.39,0,0,0,299,356q1.33,1,2.7,2l2.15-3.54C303.15,353.85,302.48,353.24,301.83,352.63Z" style="fill:#f0997a"></path><path d="M307,263.88h0c-25,15.93-52.15,27.75-68.43,31.92a5,5,0,0,0-3.66,5.8L248.7,368h0c-5.16-24.77-8.07-61.65-5.21-65.39S283.07,284.19,307,263.88Z" style="fill:#fff;opacity:0.2"></path><path d="M386.92,214.57c-2.67-4.95-3.74-8.58-2.84-12.45h0c.47-1.77.75-3.6,1.1-5.42a79.77,79.77,0,1,0-156.7-29.92c-.34,1.79-.6,3.56-.82,5.34-1.08,4.67-2.86,5.69-6.22,8.91-2.18,2.09-4.82,4.29-6.26,6.95-3.25,6-.52,10,3,13.31s6.8,2.53,8.51,7c.78,2,.88,4.25,1.49,6.33a13.7,13.7,0,0,0,7.6,8.58c6.08,2.62,13.48.57,19.43,3.47,6.92,3.37,9.66,12.32,16.49,15.86s15.61.52,22.77,3.45c5.85,2.4,9.92,8.51,16.14,9.68,8.56,1.6,17.18-6.95,25.33-3.88,3.79,1.42,5.58,4.91,5.83,8.77a31.37,31.37,0,0,1-.82,7.95c-.2,1.06-.33,2.11-.54,3.18s-.37,2-.49,3a21,21,0,0,0,0,6.08c.63,3.73,2.87,7.4,6.41,8.75a8.5,8.5,0,0,0,8.27-1.38c3.13-2.6,3.93-7,4.08-11.11.24-6.45-.63-12.94,0-19.37a30.31,30.31,0,0,1,2.08-8.79,19.77,19.77,0,0,1,4.11-6.4c.45-.45,1-.84,1.4-1.32s.48-.75.77-1.1a9.45,9.45,0,0,1,1.72-1.49,41.36,41.36,0,0,1,4-2.62c2.76-1.62,5.28-3.62,8.07-5.24a12.43,12.43,0,0,0,5.42-5.4C388.65,219.92,388.17,216.88,386.92,214.57Z" style="fill:#BA68C8"></path><path d="M386.92,214.57c-2.67-4.95-3.74-8.58-2.84-12.45h0c.47-1.77.75-3.6,1.1-5.42a79.77,79.77,0,1,0-156.7-29.92c-.34,1.79-.6,3.56-.82,5.34-1.08,4.67-2.86,5.69-6.22,8.91-2.18,2.09-4.82,4.29-6.26,6.95-3.25,6-.52,10,3,13.31s6.8,2.53,8.51,7c.78,2,.88,4.25,1.49,6.33a13.7,13.7,0,0,0,7.6,8.58c6.08,2.62,13.48.57,19.43,3.47,6.92,3.37,9.66,12.32,16.49,15.86s15.61.52,22.77,3.45c5.85,2.4,9.92,8.51,16.14,9.68,8.56,1.6,17.18-6.95,25.33-3.88,3.79,1.42,5.58,4.91,5.83,8.77a31.37,31.37,0,0,1-.82,7.95c-.2,1.06-.33,2.11-.54,3.18s-.37,2-.49,3a21,21,0,0,0,0,6.08c.63,3.73,2.87,7.4,6.41,8.75a8.5,8.5,0,0,0,8.27-1.38c3.13-2.6,3.93-7,4.08-11.11.24-6.45-.63-12.94,0-19.37a30.31,30.31,0,0,1,2.08-8.79,19.77,19.77,0,0,1,4.11-6.4c.45-.45,1-.84,1.4-1.32s.48-.75.77-1.1a9.45,9.45,0,0,1,1.72-1.49,41.36,41.36,0,0,1,4-2.62c2.76-1.62,5.28-3.62,8.07-5.24a12.43,12.43,0,0,0,5.42-5.4C388.65,219.92,388.17,216.88,386.92,214.57Z" style="opacity:0.2"></path><path d="M317.45,198.87c-2-1.19-4.59-1.42-6.23-3.08-3.18-3.21-.44-8.67,2.88-11.74s7.56-6.35,7.22-10.85a10.37,10.37,0,0,0-2.07-5c-2.08-3-4.88-5.67-8.37-6.72s-7.73-.11-9.84,2.87c-2.74,3.87-1.17,9.58-3.75,13.56-3.64,5.64-12.19,4-18.44,1.55a4.86,4.86,0,0,1-1.91-1.1,4.49,4.49,0,0,1-.74-3.53A25.59,25.59,0,0,1,281.26,162c2.49-3.28,6-6.35,6.14-10.47.28-6.44-7.36-10-13.74-10.92s-13.93-1.36-17.36-6.81c-3.15-5-.85-11.37,3.09-16.12a79.45,79.45,0,0,0-30.91,49.15c-.34,1.79-.6,3.56-.82,5.34-1.08,4.67-2.86,5.69-6.22,8.91-2.18,2.09-4.82,4.29-6.26,6.95-3.25,6-.52,10,3,13.31s6.8,2.53,8.51,7c.78,2,.88,4.25,1.49,6.33a13.7,13.7,0,0,0,7.6,8.58c3.51,1.51,7.45,1.47,11.29,1.72a9.43,9.43,0,0,0-1.15-3c-1.12-1.84-2.81-3.3-3.74-5.25s-.69-4.76,1.27-5.65a5.6,5.6,0,0,1,3.07-.15c6.92,1,9.48,6.8,19.37,5.74-2.12-4.93-2.42-14.57,1.95-17.68,2.33-1.66,5.48-1.43,8.3-.94a64.17,64.17,0,0,1,19.07,6.55c7.61,4,16.65,9.74,24,5.27A7.58,7.58,0,0,0,317.45,198.87Z" style="opacity:0.1"></path><g style="opacity:0.2"><path d="M275.55,243.88c-2.67-3.12-4.52-7-6.48-10.66-2.58-4.81-5.86-9.73-10.95-11.7-3.37-1.31-7.11-1.15-10.71-1.48s-7.47-1.39-9.59-4.33-1.95-6.7-3.4-9.89c-2.37-5.18-8.31-7.61-13.82-9a12.33,12.33,0,0,1-4.23-1.61,6.67,6.67,0,0,1-2.48-3.67c-.77,4.14,1.51,7.2,4.28,9.78,3.52,3.27,6.8,2.53,8.51,7,.78,2,.88,4.25,1.49,6.33a13.7,13.7,0,0,0,7.6,8.58c6.08,2.62,13.48.57,19.43,3.47,6.92,3.37,9.66,12.32,16.49,15.86A15.79,15.79,0,0,0,275.55,243.88Z"></path><path d="M353,289.15c-3.93-.64-7.57-3.31-8.45-7.16a12.52,12.52,0,0,1,.18-5.41c1-4.34,3.09-8.42,3.41-12.85a26.53,26.53,0,0,0-1.33-9.25c-1-3.41-2.34-6.94-5.16-9.1-4-3.06-9.69-2.41-14.57-1.1s-9.91,3.17-14.84,2c-2.45-.56-4.67-1.83-7-2.72a23.05,23.05,0,0,0-5.91-1.35,24.06,24.06,0,0,0-10.76,1.46,20,20,0,0,0-2.1.86,23.16,23.16,0,0,1,8,1.42c5.85,2.4,9.92,8.51,16.14,9.68,8.56,1.6,17.18-6.95,25.33-3.88,3.79,1.42,5.58,4.91,5.83,8.77a31.37,31.37,0,0,1-.82,7.95c-.2,1.06-.33,2.11-.54,3.18s-.37,2-.49,3a21,21,0,0,0,0,6.08c.63,3.73,2.87,7.4,6.41,8.75A8.52,8.52,0,0,0,353,289.15Z"></path><path d="M386.27,225.29a24,24,0,0,0,.9-2.35c-2.24,1-5,1.17-7.55,1.58a24.42,24.42,0,0,0-20.11,28.2,27.58,27.58,0,0,1,1.25-3.86,19.77,19.77,0,0,1,4.11-6.4c.45-.45,1-.84,1.4-1.32s.48-.75.77-1.1a9.45,9.45,0,0,1,1.72-1.49,41.36,41.36,0,0,1,4-2.62c2.76-1.62,5.28-3.62,8.07-5.24A12.43,12.43,0,0,0,386.27,225.29Z"></path></g><path d="M236.82,191.07c2.5,3.53,2.41,8.63,5.58,11.57s8.64,2.58,11.67,5.74c.91.94,1.51,2.12,2.34,3.13,3.58,4.37,10.18,4.57,15,7.57,4.57,2.86,7.3,8.15,12.07,10.66,3.19,1.69,6.85,1.88,10.38,1.7,3.68-.19,7.35-.75,11-.55.57,0,1.15.13,1.73.14a3.77,3.77,0,0,1,.58,0,6.23,6.23,0,0,1,1.14.23,10.7,10.7,0,0,1,2.16,1l.48.29c1.38.85,2.66,1.88,4.1,2.63a15.61,15.61,0,0,0,5.05,1.51,4.24,4.24,0,0,0,1.28,0,1.18,1.18,0,0,0,.69-.35A1.1,1.1,0,0,0,322,235a3.66,3.66,0,0,0-1.2-.8,3.49,3.49,0,0,1-1-.54,1.61,1.61,0,0,0-.34-.24c-.3-.16-.6-.32-.89-.51a14,14,0,0,1-1.64-1.22c-1.06-.9-2-1.9-3.05-2.84a17.88,17.88,0,0,0-2.48-1.95,16.48,16.48,0,0,0-3.24-1.51c-5.62-2-11.7-2.14-17.65-2.59a9.94,9.94,0,0,1-2.36-.38,6.56,6.56,0,0,0-.94-.33,3,3,0,0,1-.78-.24,17.4,17.4,0,0,1-3.79-2.64c-.27-.23-.54-.48-.8-.72-2.14-2-4.14-4.22-6.7-5.66a43.08,43.08,0,0,0-7.22-2.68c-2.43-.84-4.88-2.05-6.35-4.16a38.86,38.86,0,0,1-1.84-3.43,12.49,12.49,0,0,0-6-5.38,32.74,32.74,0,0,1-4.34-1.74c-2.77-1.64-4.1-4.85-5.74-7.62a29,29,0,0,0-3.82-5.06,6.9,6.9,0,0,0-2-1.51,4.2,4.2,0,0,1-.92-.58c-.51-.43-.95-.92-1.42-1.38a5.69,5.69,0,0,1-1.73-2.2c-.25-.84-.64-1.64-.92-2.47a28.23,28.23,0,0,1-1.22-5.43c-.07-.61-.31-1.39-.92-1.39-.43,0-.72.44-.88.83-.67,1.64-.48,3.48-.45,5.25s-.19,3.7-1.45,4.94a12.87,12.87,0,0,0-1,.95,3,3,0,0,0-.23,3.17,4.87,4.87,0,0,0,1.93,2c.32.18.68.21,1,.38s.84.55,1.25.82a27.47,27.47,0,0,1,4.71,3.44A9.51,9.51,0,0,1,236.82,191.07Z" style="opacity:0.1"></path><path d="M378.15,212.51c-1.4,2.75-4.66,3.94-7.66,4.67s-6.27,1.34-8.41,3.57c-3,3.13-2.92,8.62-6.49,11.08a6.86,6.86,0,0,1-3.21,1.14,11.2,11.2,0,0,1-1.92,0,2.45,2.45,0,0,0-.89,0,.77.77,0,0,1-1-1,1.26,1.26,0,0,1,.39-.52,24.71,24.71,0,0,1,2.23-1.42,8,8,0,0,0,2.5-3,23.42,23.42,0,0,0,1.4-3.66l0-.1c.24-.75.48-1.51.71-2.27a1.76,1.76,0,0,1,.17-.37c.19-.36.37-.71.57-1.06a23.76,23.76,0,0,1,1.27-2.12,12.53,12.53,0,0,1,3.27-3.42c2.07-1.42,4.65-2,6.61-3.57,2.19-1.75,3.31-4.47,4.65-6.94s4.9-7.23,8.31-5.06c1.09.69.9,1.71.4,2.73a20.76,20.76,0,0,0-1.89,4.09C378.6,207.71,379.33,210.2,378.15,212.51Z" style="opacity:0.1"></path><path d="M335.43,117.54a7.48,7.48,0,0,0,0,2.06,2.75,2.75,0,0,0,1.29,1.91c.88.57,1.63,1.62,2.77,1.57a2.76,2.76,0,0,0,2-1.2c.48-.63.83-1.36,1.34-2a4,4,0,0,1,4.85-1.19,14.53,14.53,0,0,1,2,1.63,10,10,0,0,1,2.42,2.05,2.85,2.85,0,0,1,.37,2,2.45,2.45,0,0,1-.37,1,4.94,4.94,0,0,1-2.5,1.83c-1.27.39-2.78.8-3.22,2.05-.89,2.5,3.52,5.31,1.71,7.24s-5.88-1.13-6.66,1.18a2.07,2.07,0,0,0,0,1,3,3,0,0,0,2.13,2.63,10.11,10.11,0,0,1,1.91.27c1.11.41,1.81,1.67,3,1.82a2.56,2.56,0,0,0,2.3-1.31c1.59-2.41.9-6,3-8a5.06,5.06,0,0,1,3.94-1.17,11.61,11.61,0,0,1,3.46,1,1.46,1.46,0,0,1,.54.32c.35.37.76.69,1.11,1.07a7.15,7.15,0,0,1,2.12,6.19c-.52,2.57-2.71,4.43-4.79,6-1.74,1.33-3.71,3.35-2.83,5.35a3.72,3.72,0,0,0,3.41,1.85c2.32.08,4.53-.94,6.83-1.27s5.11.36,5.9,2.55c.84,2.35-1.13,4.71-1.67,7.15a6.58,6.58,0,0,0,4.56,7.5,12.6,12.6,0,0,1,2.6.69,4.46,4.46,0,0,1,2.11,4.35,13.16,13.16,0,0,1-1.68,4.81c-1.76,3.49-3.7,7.16-7.08,9.11a16.94,16.94,0,0,0-3.07,1.83c-3,2.75-1.26,8-3.21,11.59-2.46,4.53-9.15,4.26-13.19,7.45-2.42,1.92-3.67,4.91-5.25,7.56s-4,5.26-7.08,5.38c-3.78.14-6.84-4.46-5.25-7.89,1.1-2.35,3.7-3.65,6.25-4.05,1.19-.19,2.52-.27,3.38-1.13a4.83,4.83,0,0,0,1.05-2.51c1.09-5.23,2-11.29-1.42-15.41-1.43-1.71-3.6-3.11-3.8-5.33-.26-2.83,2.82-4.72,5.52-5.61s5.9-1.93,6.72-4.65c1.45-4.76-6-8.52-5.18-13.44a12.46,12.46,0,0,0,.51-2.67c-.1-1.67-1.8-2.85-3.46-3.07a7.32,7.32,0,0,0-1.62,0c-1.81.13-3.55.58-5.37.55-.81,0-1.62-.1-2.43-.13-.55,0-1.1,0-1.65-.09a5,5,0,0,1-2.77-1.51c-.67-.62-1.3-1.29-1.94-1.94a5.39,5.39,0,0,1-1.36-1.92,3.84,3.84,0,0,1,.15-2.67,5.34,5.34,0,0,1,2.27-2.6,6.06,6.06,0,0,0,2.17-1.44c.61-.87.31-1.83.1-2.77-.06-.29,0-.58,0-.87-.14-1-1.27-1.42-2.08-1.64a15.37,15.37,0,0,0-10.63,1c-2.26,1.1-4.22,2.74-6.46,3.85s-5,1.65-7.22.44c-1.33-.73-2.27-2-3.45-3a11.37,11.37,0,0,0-3.84-2,48.65,48.65,0,0,0-6.09-1.23c-1.73-.31-3.88-.56-5.22-1.79-1.92-1.76-1.52-5.67,1-6.67,1.77-.7,4.58-.72,4.58-2.62a3,3,0,0,0-.7-1.63c-1.39-2-2.9-4.19-2.51-6.56a7.11,7.11,0,0,1,2.46-3.93,16.36,16.36,0,0,1,14-3.86c2.43.49,4.72,1.54,7.15,2s5.21.26,7-1.45c.71-.68,1.23-1.55,2-2.16,2.18-1.76,5.39-.88,8,.09,2.19.81,4.68,2,5.19,4.23A7.12,7.12,0,0,1,335.43,117.54Z" style="fill:#BA68C8;opacity:0.5"></path><path d="M353.08,286.1a4.51,4.51,0,0,0,1.23-1.58,22.62,22.62,0,0,0,2-14.49,3.81,3.81,0,0,0-.19-1.06,1,1,0,0,0-1-.54,2.5,2.5,0,0,0-1.53,1.23l-2.29,3.17c-.49.68-1,1.36-1.45,2.06a11,11,0,0,0-1,1.56,3.79,3.79,0,0,0-.18.66c-.14.6-.44,1.16-.58,1.78a7.81,7.81,0,0,0,.11,3.75,7.27,7.27,0,0,0,1.18,2.4,3.2,3.2,0,0,0,1.31,1.08,3.6,3.6,0,0,0,1.18.37A2,2,0,0,0,353.08,286.1Z" style="fill:#BA68C8;opacity:0.5"></path><path d="M352.74,265.87a3.39,3.39,0,0,0,2.15-.73,4.43,4.43,0,0,0,1.85-2.87,2.65,2.65,0,0,0-1.23-2.76c-2.13-1.05-4,1.8-4.44,3.49a2.54,2.54,0,0,0,.14,2A2.06,2.06,0,0,0,352.74,265.87Z" style="fill:#BA68C8;opacity:0.5"></path><path d="M384.08,202.12c.47-1.77.75-3.6,1.1-5.42a80.78,80.78,0,0,0,1.33-11.36c0-.74,0-1.47.06-2.2a79.73,79.73,0,0,0-129.64-63.6l2.07-.42a37.18,37.18,0,0,0-6.11,10.21c-1.14,3.15-.87,7,1.52,9.37,1.79,1.74,4.46,2.36,6.21,4.14,2.39,2.41,2.58,6.41,5,8.76,2.73,2.64,7.72,2.69,9.35,6.11,1.47,3.12-.84,7.35,1.29,10.06,1.15,1.46,3.31,2,4.16,3.62,1.09,2.11-.55,4.51-1.26,6.77a8.6,8.6,0,1,0,16.65,4.23c.56-2.88-.37-5.84-.16-8.77s2.43-6.2,5.31-5.69c2.67.47,3.91,3.79,6.44,4.77,2.07.8,4.49-.17,6.59.56s3.23,2.85,4.58,4.59a17,17,0,0,0,18.51,5.5c3.23-1.12,6.33-3.27,9.72-2.85,4.23.53,7.34,5,11.61,5,4,.07,7.65-3.76,11.48-2.64,3.18.93,4.49,4.84,4.21,8.13s-1.61,6.47-1.64,9.78A13,13,0,0,0,383.7,213.4c.41-1.18.75-2.38,1-3.58A13.25,13.25,0,0,1,384.08,202.12Z" style="opacity:0.2"></path><path d="M398.87,161.91c-3.3-8.8-5.27-11.87-2-19.31A71.66,71.66,0,0,0,400,105.72c-9.7-63.21-98.08-80.68-131.2-26-4.24,6.63-6.77,15.13-14.43,18.72-14.78,3.51-14.75,20.28-7.82,31,4-4.27,6.69-7.37,12.41-10.32-2.8,7.45-4.26,13,4.13,17,3,2.85,3.16,7.65,6.42,10.42,6.69,5.67,11,1.31,12.05,6.92-1.35,10.34-1.07,9,4.07,17.87.88,5.54-2.87,14.32,5.19,15.93,14.55,1.07,3.36-19.48,11.47-21.2a6.87,6.87,0,0,1,3.89,1.06c2.47,1.28,5.36-.87,7.69,0,10.42,4.11,14.84,15.18,26.39,9.45,3.07-1.68,6.61-4.55,10.27-3.31,4,1.72,5.12,7.84,10.4,7.56,6.7-.36,8.51-5.84,13.67-3.68,12.08,7.91-5,25.32,4.61,35.39,2.91,4.35,12.41,7.49,13.51.23.73-6.07-2.89-11.48-3.24-17.41C386.62,181.1,403.39,174,398.87,161.91Z" style="fill:#BA68C8"></path><path d="M335.23,121.84c3.55-2,8-4,8.62-8a9.32,9.32,0,0,0-.75-4.78c-1.18-3.06-3.05-6-5.89-7.66s-6.73-1.74-9.21.41c-3.22,2.8-3.06,8.13-6.16,11.06-4.39,4.15-11.51.88-16.46-2.58A4.33,4.33,0,0,1,304,109a4.05,4.05,0,0,1,.11-3.25,22.88,22.88,0,0,1,7.17-10.21c2.88-2.34,6.56-4.29,7.6-7.85A7.57,7.57,0,0,0,317.35,81a12.38,12.38,0,0,0-4.64-4c-1.22-.5-2.4-1.1-3.61-1.61A47,47,0,0,1,302,72c-.47-.3-.92-.62-1.36-1-3.61-2.78-6.15-7.73-4.36-11.91.83-1.93,2.52-3.75,2.13-5.8a66.25,66.25,0,0,0-29.55,26.37c-4.24,6.63-6.77,15.13-14.43,18.72-14.78,3.51-14.75,20.28-7.82,31,4-4.27,6.69-7.37,12.41-10.32-2.8,7.45-4.26,13,4.13,17,2.43,2.33,2.91,6.08,4.86,8.77a6.05,6.05,0,0,0-.13-3.52c-.66-2.16-2-4.11-2.48-6.33-.39-1.89.41-4.31,2.31-4.67a5.16,5.16,0,0,1,2.73.52c5.84,2.31,6.83,8,15.7,9.15-.8-4.76,1-13.25,5.48-15,2.39-1,5.09-.08,7.45,1a57.74,57.74,0,0,1,15.27,9.79c5.79,5.16,12.48,12.07,19.88,9.72a6.81,6.81,0,0,0,.79-10c-1.5-1.47-3.71-2.23-4.79-4C328.11,128,331.67,123.81,335.23,121.84Z" style="opacity:0.1"></path><path d="M266.18,111.49c1.42,3.62.26,8.07,2.41,11.31s7,4.1,9,7.51c.58,1,.86,2.17,1.37,3.23,2.2,4.59,7.92,6.17,11.48,9.81,3.38,3.47,4.64,8.68,8.27,11.89,2.43,2.16,5.59,3.1,8.72,3.7a94.9,94.9,0,0,1,9.76,1.87c.5.15,1,.36,1.48.49l.5.16a5.5,5.5,0,0,1,1,.45,9.61,9.61,0,0,1,1.68,1.29l.37.36c1,1,1.91,2.21,3,3.17a14.1,14.1,0,0,0,4.1,2.41,3.66,3.66,0,0,0,1.11.3,1.06,1.06,0,0,0,.68-.16,1,1,0,0,0,.19-1.19,3,3,0,0,0-.88-1,3.32,3.32,0,0,1-.72-.68,1.08,1.08,0,0,0-.24-.28c-.24-.21-.46-.42-.67-.64a12.34,12.34,0,0,1-1.18-1.42c-.73-1-1.37-2.09-2.06-3.13a16.36,16.36,0,0,0-1.75-2.23,14.76,14.76,0,0,0-2.51-2c-4.49-2.95-9.78-4.37-14.88-6a8.86,8.86,0,0,1-2-.84,7.43,7.43,0,0,0-.75-.49A2.12,2.12,0,0,1,303,149a15.59,15.59,0,0,1-2.75-3.1l-.55-.81c-1.44-2.2-2.72-4.57-4.65-6.37a39.09,39.09,0,0,0-5.74-3.89,11.2,11.2,0,0,1-4.66-5c-.43-1.09-.56-2.27-.88-3.4a11.21,11.21,0,0,0-4.1-6,29.93,29.93,0,0,1-3.43-2.44c-2.07-2-2.55-5.12-3.39-7.89a25.87,25.87,0,0,0-2.27-5.24,6,6,0,0,0-1.39-1.73,3.85,3.85,0,0,1-.68-.72c-.36-.47-.64-1-.95-1.5a5,5,0,0,1-1-2.3c0-.78-.21-1.56-.28-2.35a24.67,24.67,0,0,1,.09-5c.07-.54,0-1.28-.5-1.4-.38-.09-.73.22-1,.53a11.93,11.93,0,0,0-1.5,4.49c-.36,1.55-1,3.2-2.33,4a11.49,11.49,0,0,0-1.08.61,2.71,2.71,0,0,0-.87,2.73,4.4,4.4,0,0,0,1.25,2.19c.24.22.56.33.8.55s.61.65.92,1a25.45,25.45,0,0,1,3.38,4A10.28,10.28,0,0,1,266.18,111.49Z" style="opacity:0.1"></path><path d="M385.15,160.37c-1.81,2.11-4.91,2.45-7.69,2.45s-5.77-.17-8.12,1.33c-3.29,2.09-4.39,6.9-8,8.3a6.33,6.33,0,0,1-3.05.31,10.49,10.49,0,0,1-1.68-.38,2.25,2.25,0,0,0-.78-.23.69.69,0,0,1-.68-.32.72.72,0,0,1,0-.75,1.11,1.11,0,0,1,.46-.37,20.5,20.5,0,0,1,2.25-.76,7.2,7.2,0,0,0,2.81-2.08,19.45,19.45,0,0,0,2-2.9l0-.08c.37-.61.74-1.22,1.1-1.83a1.28,1.28,0,0,1,.23-.29l.72-.81c.5-.55,1-1.08,1.56-1.58a11.33,11.33,0,0,1,3.59-2.29c2.12-.8,4.5-.76,6.54-1.71,2.29-1.06,3.85-3.21,5.55-5.08s5.82-5.28,8.34-2.65c.81.84.43,1.68-.23,2.47a18.35,18.35,0,0,0-2.52,3.18C386.57,156.27,386.67,158.6,385.15,160.37Z" style="opacity:0.1"></path><path d="M389.78,215.18a12.15,12.15,0,0,1-8.47-10.29c-.38-4.1,1.37-8,2.77-11.91.13-.35.25-.71.37-1.06a20,20,0,0,0,1.28-7.33,8.23,8.23,0,0,0-.78-3.42,13.82,13.82,0,0,1-.7-2.6,7.66,7.66,0,0,0-5.31-5.47c-3.49-.77-6.91,1.59-10.47,1.69-.77,0-1.55-.07-2.32,0-3.49.35-6,3.84-9.35,4.6a5.67,5.67,0,0,0,4.17,1.48c6.7-.36,8.51-5.84,13.67-3.68,12.08,7.91-5,25.32,4.61,35.39,2.45,3.65,9.54,6.43,12.39,2.92A9.6,9.6,0,0,1,389.78,215.18Z" style="opacity:0.1"></path><path d="M368.05,68.24a6.29,6.29,0,0,0-.42,1.8,2.38,2.38,0,0,0,.72,1.95c.64.69,1.07,1.76,2.08,2a2.47,2.47,0,0,0,2-.64c.56-.45,1-1,1.6-1.44a3.65,3.65,0,0,1,4.49,0,12,12,0,0,1,1.38,1.85,9.05,9.05,0,0,1,1.68,2.3,2.54,2.54,0,0,1-.09,1.8,2.17,2.17,0,0,1-.53.77,4.37,4.37,0,0,1-2.58,1.06c-1.19.08-2.6.11-3.25,1.11-1.31,2,1.95,5.39-.05,6.69-1.84,1.2-4.9-2.24-6.07-.38a1.8,1.8,0,0,0-.25.88A2.65,2.65,0,0,0,370,90.71a9,9,0,0,1,1.61.65c.88.59,1.23,1.85,2.22,2.22a2.31,2.31,0,0,0,2.29-.66c1.9-1.76,2.06-5.06,4.32-6.34a4.52,4.52,0,0,1,3.69-.18A10.61,10.61,0,0,1,387,88a1.27,1.27,0,0,1,.4.4c.23.4.51.76.74,1.17a6.42,6.42,0,0,1,.53,5.86c-1,2.14-3.31,3.3-5.47,4.25-1.8.8-4,2.14-3.62,4.07a3.36,3.36,0,0,0,2.59,2.35c2,.56,4.16.15,6.24.34s4.4,1.41,4.62,3.49c.23,2.24-2,3.88-3,5.9a5.93,5.93,0,0,0,2.39,7.53,11.8,11.8,0,0,1,2.13,1.15,4,4,0,0,1,.91,4.25,11.83,11.83,0,0,1-2.5,3.85c-2.28,2.67-4.75,5.48-8.12,6.46a14.56,14.56,0,0,0-3.07.94c-3.24,1.76-2.82,6.72-5.29,9.45-3.11,3.43-8.9,1.77-13.11,3.7-2.53,1.16-4.26,3.51-6.21,5.49s-4.61,3.75-7.33,3.19c-3.34-.68-5-5.36-2.9-8,1.45-1.81,4-2.39,6.32-2.2a5.22,5.22,0,0,0,3.19-.27,4.34,4.34,0,0,0,1.46-2c2.07-4.34,4.15-9.45,2-13.77-.88-1.8-2.48-3.49-2.19-5.47.38-2.53,3.48-3.52,6-3.73s5.58-.43,6.88-2.63c2.27-3.85-3.4-8.72-1.67-12.85a12.08,12.08,0,0,0,1-2.23c.27-1.48-1-2.87-2.37-3.42a7,7,0,0,0-1.41-.38c-1.61-.28-3.23-.25-4.81-.67-.71-.18-1.4-.43-2.1-.63a13.69,13.69,0,0,1-1.42-.43,4.44,4.44,0,0,1-2.11-1.91c-.44-.69-.85-1.4-1.27-2.11a4.9,4.9,0,0,1-.79-2,3.43,3.43,0,0,1,.71-2.3A4.75,4.75,0,0,1,357,93.08a5.42,5.42,0,0,0,2.2-.79,3,3,0,0,0,.68-2.4,6.53,6.53,0,0,1,.14-.77c.08-.87-.81-1.52-1.47-1.88a13.77,13.77,0,0,0-9.5-1.41c-2.21.48-4.27,1.49-6.47,2s-4.74.37-6.41-1.16a23.59,23.59,0,0,1-2.38-3.33,10.06,10.06,0,0,0-2.94-2.53,46.67,46.67,0,0,0-5.06-2.38c-1.44-.64-3.27-1.31-4.18-2.67-1.31-2-.12-5.29,2.31-5.62,1.69-.23,4.15.35,4.56-1.32a2.64,2.64,0,0,0-.27-1.57c-.79-2-1.64-4.28-.79-6.27a6.4,6.4,0,0,1,3-2.91,14.75,14.75,0,0,1,13.05-.39c2,.95,3.8,2.36,5.82,3.29s4.5,1.33,6.44.22c.76-.44,1.4-1.09,2.2-1.47,2.28-1.07,4.89.39,7,1.79,1.74,1.17,3.68,2.71,3.63,4.8A6.24,6.24,0,0,1,368.05,68.24Z" style="fill:#fff;opacity:0.05"></path><path d="M345.66,53.88c-3.12.52-1.36,2.44-3.77,3.67-1.61.82-4.7,1.22-5.11,3a4.13,4.13,0,0,0,2,4.12,12.16,12.16,0,0,0,4.59,1.49L353.69,68c2.05.37,4.51,1.12,4.95,3.16.14.67,0,1.37.21,2,.56,2,3.23,2.27,5.29,2.1s4.7,0,5.44,1.89a15.25,15.25,0,0,1,.36,1.81c.6,2.37,3.35,3.33,5.59,4.32a21.28,21.28,0,0,1,12,15.05c.3,1.52,1.18,3.58,2.65,3.08,1-.33,1.18-1.62,1.17-2.66-.11-11.39-4.91-21.48-13-29.46S356.59,52.05,345.66,53.88Z" style="fill:#fff;opacity:0.2"></path><path d="M388.47,110.18a1.9,1.9,0,0,0,.78,1.19,2.15,2.15,0,0,0,.9.24,2.9,2.9,0,0,0,1.8-.27,2.46,2.46,0,0,0,1-1.87,3.85,3.85,0,0,0-1.65-3.75c-1.35-.71-2.4.74-2.78,1.88A4.45,4.45,0,0,0,388.47,110.18Z" style="fill:#fff;opacity:0.2"></path><path d="M383.92,202.73a11.19,11.19,0,0,0,.24,4.53,7.93,7.93,0,0,0,1.59,3.57,4.87,4.87,0,0,0,2.4,1.46,1.36,1.36,0,0,0,.6,0,1.23,1.23,0,0,0,.51-.31c1.08-1,1.15-2.69,1.08-4.18a19.38,19.38,0,0,0-1.22-6.4,8.26,8.26,0,0,0-1.68-2.73c-.73-.7-1.41-.25-1.91.45A9.24,9.24,0,0,0,383.92,202.73Z" style="fill:#fff;opacity:0.2"></path><path d="M392.16,162.84c-.13.2-.25.41-.37.61-.56,1-1.07,1.92-1.54,2.91-.6,1.26-1.12,2.73-.56,4a3.52,3.52,0,0,0,1.72,1.64,1.23,1.23,0,0,0,1,.16c.39-.12.8-.21,1.19-.36a3.68,3.68,0,0,0,.91-.5,4.74,4.74,0,0,0,1.57-1.76,16.06,16.06,0,0,0,1.41-3.44,5.45,5.45,0,0,0-.28-3.65,2.41,2.41,0,0,0-4-.86A5.48,5.48,0,0,0,392.16,162.84Z" style="fill:#fff;opacity:0.2"></path><path d="M394.4,390.92a10.41,10.41,0,0,1,3.1,2c1.63,1.58,3.17,4.37,2,6.68-1.37,2.67-5.15,3.08-7.55,4.42-3.23,1.81-.76,4.37-.47,6.89.44,3.85-4.65,7.13-10.51,8.09-3.72.61-7.52.5-11.28.77a18.3,18.3,0,0,0-4.46.39,11.57,11.57,0,0,0-3.77,2.79c-2.65,2.52-4.66,4.64-8.34,5.64a21.82,21.82,0,0,1-10.77.09,15.66,15.66,0,0,1-7.44-5.2,15.19,15.19,0,0,0-7.37-5.53c-7.81-2.48-16.24-4.55-19.05-10.06-2.58-5.06,2.23-9.05,9.92-10.49,7.08-1.32,16.14.34,22.38-2.19,7.72-3.12,6-12.4,19.87-10.06a43.37,43.37,0,0,1,7.7,1.92,29.36,29.36,0,0,0,13,2.1C385.71,389.09,390.69,389.31,394.4,390.92Z" style="fill:#BA68C8"></path><path d="M394.4,390.92a10.41,10.41,0,0,1,3.1,2c1.63,1.58,3.17,4.37,2,6.68-1.37,2.67-5.15,3.08-7.55,4.42-3.23,1.81-.76,4.37-.47,6.89.44,3.85-4.65,7.13-10.51,8.09-3.72.61-7.52.5-11.28.77a18.3,18.3,0,0,0-4.46.39,11.57,11.57,0,0,0-3.77,2.79c-2.65,2.52-4.66,4.64-8.34,5.64a21.82,21.82,0,0,1-10.77.09,15.66,15.66,0,0,1-7.44-5.2,15.19,15.19,0,0,0-7.37-5.53c-7.81-2.48-16.24-4.55-19.05-10.06-2.58-5.06,2.23-9.05,9.92-10.49,7.08-1.32,16.14.34,22.38-2.19,7.72-3.12,6-12.4,19.87-10.06a43.37,43.37,0,0,1,7.7,1.92,29.36,29.36,0,0,0,13,2.1C385.71,389.09,390.69,389.31,394.4,390.92Z" style="opacity:0.2"></path><path d="M397.5,393a10.41,10.41,0,0,0-3.1-2c-3.71-1.61-8.69-1.83-13-1.72a29.36,29.36,0,0,1-13-2.1,43.37,43.37,0,0,0-7.7-1.92c-13.88-2.34-12.15,6.94-19.87,10.06a21,21,0,0,1-5.85,1.29,6.62,6.62,0,0,0,1.85.42,22,22,0,0,0,6.35-1,35,35,0,0,1,7.7-.83,3.37,3.37,0,0,1,2.55.77c.6.67.6,1.68.93,2.52.88,2.2,3.74,2.69,6.11,2.7,4.05,0,8.11-.44,12.14-.08s8.16,1.62,11,4.5,4,7.64,1.94,11.11a11.47,11.47,0,0,1-1.14,1.53c4.28-1.45,7.45-4.16,7.1-7.23-.29-2.52-2.76-5.08.47-6.89,2.4-1.34,6.18-1.75,7.55-4.42C400.67,397.32,399.13,394.53,397.5,393Z" style="fill:#BA68C8;opacity:0.5"></path><path d="M356.25,427.32a19.23,19.23,0,0,1-5.75.37,24.81,24.81,0,0,1-7.12-1.62c-2.25-1-4.09-3-5.63-4.89-1.9-2.33-3.7-4.6-6.43-6a60,60,0,0,0-9.13-3.42c-3.71-1.21-8.28-1.68-11.21-4.45-1.19-1.12-2.24-2.34-2.28-4.06,0-.2,0-.51,0-.85a5.15,5.15,0,0,0-.21,5.54c2.81,5.51,11.24,7.58,19.05,10.06a15.19,15.19,0,0,1,7.37,5.53,15.66,15.66,0,0,0,7.44,5.2,21.82,21.82,0,0,0,10.77-.09A12.91,12.91,0,0,0,356.25,427.32Z" style="opacity:0.15"></path><path d="M398.69,395.89c-.13,1.92-.45,3-2.22,4a31,31,0,0,1-3.69,1.73c-.82.34-2.45.82-2.94,1.62-.63,1-.06,2.22.47,3.33a2.65,2.65,0,0,1,1.64-2.48c2.4-1.34,6.18-1.75,7.55-4.42.92-1.8.17-3.9-1-5.49A8.83,8.83,0,0,1,398.69,395.89Z" style="opacity:0.15"></path><path d="M388.84,408.75a1.77,1.77,0,0,0-1.47-1c-1.43-.12-2.77,1.68-3.49,2.69-1.93,2.69-5.34,4.17-8.37,5.19-.59.2-2.34.38-2.3,1.24s1.1.79,1.62.85a17.53,17.53,0,0,0,12.09-3.19c1.11-.8,2.35-2.21,2.34-3.65A5,5,0,0,0,388.84,408.75Z" style="fill:#BA68C8;opacity:0.5"></path><path d="M371.5,416.44a1.15,1.15,0,0,0-.46-.31,2.75,2.75,0,0,0-2.51.48c-.63.7.57,1.09,1.18,1.18C370.52,417.91,372,417.09,371.5,416.44Z" style="fill:#BA68C8;opacity:0.5"></path><path d="M359.76,387.14a14,14,0,0,0-7.1.83c-1,.4-3.35,1.21-3.21,3.83.13,2.42,3.62,1.4,4.63,1a21.09,21.09,0,0,1,7.2-1.48,15.14,15.14,0,0,1,5.49,1.06c.76.25,2.24,1,3-.06.61-.92-1.12-1.87-1.77-2.33A19.52,19.52,0,0,0,359.76,387.14Z" style="fill:#fff;opacity:0.1"></path><path d="M315.94,399.47c-2.36.87-5.21,2.52-4.69,5,.24,1.16,1.8,2.71,3,2.19s.8-1.9,1-2.85a3.87,3.87,0,0,1,.42-1.24,3.24,3.24,0,0,1,.81-.88,9.14,9.14,0,0,1,2.83-1.27,28.68,28.68,0,0,1,2.84-.82c.41-.09,2.16-.41,1.31-1a3.2,3.2,0,0,0-1.93-.27,21.07,21.07,0,0,0-4,.71A15.15,15.15,0,0,0,315.94,399.47Z" style="fill:#BA68C8;opacity:0.5"></path><path d="M316.55,406.44a1.08,1.08,0,0,0-1.44.71c-.27,1,.51,1.35,1.29,1.62s1.79.17,1.49-.88a2,2,0,0,0-1.19-1.4Z" style="fill:#BA68C8;opacity:0.5"></path><path d="M382.66,238c-1.68,2.94-1.31,6.53-2.43,9.69-1.05,2.93-1.77,6.37.49,8.88a8.4,8.4,0,0,0,11.94.52,7,7,0,0,0,1.22-8.82c-1.62-3.57-1.37-6.88-3.15-10.38C389.34,235.09,384.2,235.11,382.66,238Z" style="fill:#BA68C8"></path><path d="M392.38,257.28a5.18,5.18,0,0,1-3.46.54c-3-.36-4.79-2-5.2-4.2-.58-3.05,1.32-6.15.86-9.22-.26-1.69-1.05-3.34-.82-5a5.68,5.68,0,0,1,2.12-3.48,4.35,4.35,0,0,0-3.22,2.07c-1.68,2.94-1.31,6.53-2.43,9.69-1.05,2.93-1.77,6.37.49,8.88A8.4,8.4,0,0,0,392.38,257.28Z" style="opacity:0.2"></path><path d="M388.32,248.3a4.2,4.2,0,0,0-1,2.69,3,3,0,0,0,.2,1.33,3.2,3.2,0,0,0,.71.93,5.57,5.57,0,0,0,1.72,1.22,2.72,2.72,0,0,0,2.06.05,1.64,1.64,0,0,0,.76-.64,1.91,1.91,0,0,0,.23-.78,6.16,6.16,0,0,0-.7-3.81,6.41,6.41,0,0,0-1.14-1.4,1.29,1.29,0,0,0-1-.43A2.72,2.72,0,0,0,388.32,248.3Z" style="fill:#fff;opacity:0.2"></path><path d="M346.75,311.92c-2.08,3.64-1.62,8.07-3,12-1.29,3.63-2.19,7.88.61,11a10.39,10.39,0,0,0,14.77.63,8.69,8.69,0,0,0,1.52-10.91c-2-4.42-1.7-8.52-3.9-12.84C355,308.38,348.65,308.4,346.75,311.92Z" style="fill:#BA68C8"></path><path d="M346.75,311.92c-2.08,3.64-1.62,8.07-3,12-1.29,3.63-2.19,7.88.61,11a10.39,10.39,0,0,0,14.77.63,8.69,8.69,0,0,0,1.52-10.91c-2-4.42-1.7-8.52-3.9-12.84C355,308.38,348.65,308.4,346.75,311.92Z" style="opacity:0.2"></path><path d="M358.78,335.84a6.35,6.35,0,0,1-4.28.66c-3.71-.44-5.93-2.48-6.44-5.2-.72-3.77,1.63-7.61,1.06-11.4-.31-2.1-1.29-4.14-1-6.24a7.06,7.06,0,0,1,2.63-4.31,5.39,5.39,0,0,0-4,2.57c-2.08,3.64-1.62,8.07-3,12-1.29,3.63-2.19,7.88.61,11A10.4,10.4,0,0,0,358.78,335.84Z" style="opacity:0.2"></path><path d="M353.76,324.72a5.12,5.12,0,0,0-1.23,3.33,3.69,3.69,0,0,0,.25,1.65,3.92,3.92,0,0,0,.88,1.15,6.71,6.71,0,0,0,2.12,1.5,3.34,3.34,0,0,0,2.56.06,1.92,1.92,0,0,0,.93-.78,2.68,2.68,0,0,0,.29-1,7.58,7.58,0,0,0-.87-4.72,7.86,7.86,0,0,0-1.41-1.74,1.57,1.57,0,0,0-1.29-.53A3.34,3.34,0,0,0,353.76,324.72Z" style="fill:#BA68C8;opacity:0.5"></path><path d="M294.06,86.82c1.42-4.3.49-9.57-3.06-12.36-.87-.68-1.88-1.07-2.79-1.67a2.7,2.7,0,0,0-1.12-.41,19.05,19.05,0,0,0-3.62-.16,30,30,0,0,0-7.21,1.28c-1,.3-2,.63-3,1-.46.69-.9,1.39-1.33,2.11-3.6,5.62-6,12.57-11.27,16.75a17.63,17.63,0,0,1-6.26,5.06,17.83,17.83,0,0,0-4.69,1.81.36.36,0,0,1,0,.09,4.29,4.29,0,0,0,1.53,1.3,20.64,20.64,0,0,0,8.63,2.4,39.38,39.38,0,0,0,25.65-6.9C289.28,94.51,292.63,91.11,294.06,86.82Z" style="opacity:0.2"></path><path d="M292.22,67.19c3.59,14.35-5.36,28-19.7,31.58s-28.66-4.23-32.25-18.57,10.3-26.27,22.09-22C271.44,48.18,288.63,52.85,292.22,67.19Z" style="fill:#37474f"></path><path d="M266.26,20.56a6.62,6.62,0,0,0-4,1.4,10.42,10.42,0,0,0-3.44,3.54c-1.84,3.58-2.47,8.24-2.36,12.63a51.7,51.7,0,0,0,2,13.34,27,27,0,0,0,4.88,9.91,3.84,3.84,0,0,0,1.54-.71c-4.46-5.83-5.11-17.19-4.45-22.76.81-6.78,3.07-12.5,6.24-16C267,21.55,266.66,20.56,266.26,20.56Z" style="fill:#263238"></path><path d="M269,59.15c-1.2.24-2.32.78-3.52,1a11.58,11.58,0,0,1-3.52.21c-1.74-.19-4.43-1.05-5.86.36-.06.06-.08.23,0,.25.51.09,1,.07,1.58.12s1.23.19,1.84.32a23.62,23.62,0,0,0,3.53.67c2.22.11,4.84-.53,6.07-2.54C269.18,59.46,269.15,59.11,269,59.15Z" style="fill:#263238"></path><path d="M276,58.58a3.79,3.79,0,0,0,.11,4.07,8.63,8.63,0,0,0,2.25,1.95,28.14,28.14,0,0,1,5.85,5.58,7.13,7.13,0,0,0,1.44,1.56,2.12,2.12,0,0,0,2,.32,2.76,2.76,0,0,0,1.27-2.25,11.77,11.77,0,0,0-6-12,11.12,11.12,0,0,0-2.47-1,4.46,4.46,0,0,0-2.08.15A3.84,3.84,0,0,0,276,58.58Z" style="fill:#fff;opacity:0.2"></path><path d="M284.54,78a6.81,6.81,0,0,0-.49,3.15,1.93,1.93,0,0,0,.72,1.48,1.61,1.61,0,0,0,1.14.19,3.43,3.43,0,0,0,2.3-1.54,5.75,5.75,0,0,0,.84-2.69,3.74,3.74,0,0,0-.39-2.29c-.33-.54-1.14-1.16-1.81-.91a2.69,2.69,0,0,0-.86.48,4.84,4.84,0,0,0-.84.93A5.42,5.42,0,0,0,284.54,78Z" style="fill:#fff;opacity:0.2"></path></g></g></svg>